<?xml version="1.0" encoding="UTF-8"?>
<svg width="120px" height="60px" viewBox="0 0 120 60" version="1.1" xmlns="http://www.w3.org/2000/svg">
    <title>МигКредит</title>
    <g stroke="none" stroke-width="1" fill="none" fill-rule="evenodd">
        <rect fill="#D93438" x="0" y="0" width="120" height="60" rx="4"></rect>
        <g transform="translate(10, 22)" fill="#FFFFFF" fill-rule="nonzero">
            <path d="M0,0 L4,0 L4,5 L8,0 L13,0 L7,7 L13,15 L8,15 L4,9 L4,15 L0,15 L0,0 Z"></path>
            <path d="M15,0 L19,0 L19,5 L22,5 L22,0 L26,0 L26,15 L22,15 L22,9 L19,9 L19,15 L15,15 L15,0 Z"></path>
            <path d="M29,0 L34,0 L38,10 L38,0 L42,0 L42,15 L37,15 L33,5 L33,15 L29,15 L29,0 Z"></path>
            <path d="M45,0 L49,0 L52,8 L55,0 L59,0 L54,15 L50,15 L45,0 Z"></path>
            <path d="M60,0 L64,0 L64,9 L70,9 L70,0 L74,0 L74,15 L70,15 L70,13 L64,13 L64,15 L60,15 L60,0 Z"></path>
            <path d="M76,0 L89,0 L89,4 L80,4 L80,6 L87,6 L87,9 L80,9 L80,11 L89,11 L89,15 L76,15 L76,0 Z"></path>
            <path d="M92,0 L96,0 L102,7 L102,0 L106,0 L106,15 L102,15 L96,8 L96,15 L92,15 L92,0 Z"></path>
            <path d="M109,0 L113,0 L113,15 L109,15 L109,0 Z"></path>
            <path d="M116,0 L120,0 L120,15 L116,15 L116,0 Z"></path>
        </g>
    </g>
</svg>