<?xml version="1.0" encoding="UTF-8"?>
<svg width="24px" height="24px" viewBox="0 0 24 24" version="1.1" xmlns="http://www.w3.org/2000/svg">
    <title>Иконка уведомления</title>
    <g stroke="none" stroke-width="1" fill="none" fill-rule="evenodd">
        <circle fill="#FF9829" cx="12" cy="12" r="12"></circle>
        <path d="M8,8 L16,8 C17.1045695,8 18,8.8954305 18,10 L18,14 C18,15.1045695 17.1045695,16 16,16 L8,16 C6.8954305,16 6,15.1045695 6,14 L6,10 C6,8.8954305 6.8954305,8 8,8 Z" fill="#FFFFFF"></path>
        <path d="M12,7 C12.5522847,7 13,7.44771525 13,8 L13,16 C13,16.5522847 12.5522847,17 12,17 C11.4477153,17 11,16.5522847 11,16 L11,8 C11,7.44771525 11.4477153,7 12,7 Z" fill="#FF9829"></path>
        <path d="M15,10 C15.5522847,10 16,10.4477153 16,11 L16,13 C16,13.5522847 15.5522847,14 15,14 C14.4477153,14 14,13.5522847 14,13 L14,11 C14,10.4477153 14.4477153,10 15,10 Z" fill="#FF9829"></path>
        <path d="M9,10 C9.55228475,10 10,10.4477153 10,11 L10,13 C10,13.5522847 9.55228475,14 9,14 C8.44771525,14 8,13.5522847 8,13 L8,11 C8,10.4477153 8.44771525,10 9,10 Z" fill="#FF9829"></path>
    </g>
</svg>