<?xml version="1.0" encoding="UTF-8"?>
<svg width="120px" height="60px" viewBox="0 0 120 60" version="1.1" xmlns="http://www.w3.org/2000/svg">
    <title>MoneyMan</title>
    <g stroke="none" stroke-width="1" fill="none" fill-rule="evenodd">
        <rect fill="#43A047" x="0" y="0" width="120" height="60" rx="4"></rect>
        <g transform="translate(12, 23)" fill="#FFFFFF" fill-rule="nonzero">
            <path d="M0,0 L3,0 L3,4 L7,0 L11,0 L6,5 L11,14 L7,14 L4,8 L3,9 L3,14 L0,14 L0,0 Z"></path>
            <path d="M14,0 C16.2,0 18,1.8 18,4 L18,10 C18,12.2 16.2,14 14,14 C11.8,14 10,12.2 10,10 L10,4 C10,1.8 11.8,0 14,0 Z M14,3 C13.4,3 13,3.4 13,4 L13,10 C13,10.6 13.4,11 14,11 C14.6,11 15,10.6 15,10 L15,4 C15,3.4 14.6,3 14,3 Z"></path>
            <path d="M20,0 L23,0 L23,6 L25,6 L25,0 L28,0 L28,14 L25,14 L25,9 L23,9 L23,14 L20,14 L20,0 Z"></path>
            <path d="M31,0 L34,0 L34,11 L39,11 L39,14 L31,14 L31,0 Z"></path>
            <path d="M41,0 L44,0 L44,14 L41,14 L41,0 Z"></path>
            <path d="M55,0 L58,0 L58,14 L55,14 L55,6 L54,9 L52,9 L51,6 L51,14 L48,14 L48,0 L51,0 L53,5 L55,0 Z"></path>
            <path d="M60,0 L67,0 C69.2,0 71,1.8 71,4 L71,10 C71,12.2 69.2,14 67,14 L60,14 L60,0 Z M64,3 L64,11 L67,11 C67.6,11 68,10.6 68,10 L68,4 C68,3.4 67.6,3 67,3 L64,3 Z"></path>
            <path d="M73,0 L76,0 L76,6 L78,6 L78,0 L81,0 L81,14 L78,14 L78,9 L76,9 L76,14 L73,14 L73,0 Z"></path>
            <path d="M87,0 L96,0 L96,3 L90,3 L90,5.5 L95,5.5 L95,8.5 L90,8.5 L90,11 L96,11 L96,14 L87,14 L87,0 Z"></path>
        </g>
    </g>
</svg>