<?xml version="1.0" encoding="UTF-8"?>
<svg width="120px" height="60px" viewBox="0 0 120 60" version="1.1" xmlns="http://www.w3.org/2000/svg">
    <title>Займер</title>
    <g stroke="none" stroke-width="1" fill="none" fill-rule="evenodd">
        <rect fill="#2E74B9" x="0" y="0" width="120" height="60" rx="4"></rect>
        <g transform="translate(18, 20)" fill="#FFFFFF" fill-rule="nonzero">
            <path d="M0,2 L18,2 L18,6 L6,6 L0,14 L0,18 L18,18 L18,14 L6,14 L12,6 L12,2 L0,2 Z"></path>
            <path d="M23,2 L27,2 L27,7 L32,7 L32,2 L36,2 L36,18 L32,18 L32,11 L27,11 L27,18 L23,18 L23,2 Z"></path>
            <path d="M40,2 L55,2 L55,6 L44,6 L44,8 L53,8 L53,12 L44,12 L44,14 L55,14 L55,18 L40,18 L40,2 Z"></path>
            <path d="M58,2 L62,2 L68,10 L68,2 L72,2 L72,18 L68,18 L62,10 L62,18 L58,18 L58,2 Z"></path>
            <path d="M77,2 L91,2 L91,6 L85,6 L85,18 L81,18 L81,6 L77,6 L77,2 Z"></path>
        </g>
    </g>
</svg>